<svg width="376" height="335" viewBox="0 0 376 335" fill="none" xmlns="http://www.w3.org/2000/svg">
<path d="M175.415 85.618C48.9484 72.7656 56.2046 176.874 133.319 193.804C260.763 221.783 119.438 362.116 83.1566 294.728" stroke="white" stroke-width="5"/>
<path d="M204.138 85.1491C198.716 84.0823 196.289 77.6988 199.622 73.2715L213.505 54.8281C214.409 53.6274 215.651 52.7251 217.07 52.2377L322.188 16.1404C326.105 14.7951 330.362 16.8838 331.694 20.8057L339.333 43.2866C340.666 47.2085 338.571 51.4784 334.653 52.8237L229.169 89.0467C227.922 89.4749 226.586 89.5665 225.294 89.3123L204.138 85.1491Z" stroke="white" stroke-width="5"/>
<path d="M331.759 20.5003C330.439 16.6162 332.479 12.5704 336.2 11.5045C339.997 10.4168 344.417 9.33407 348.468 8.78644C352.658 8.22005 355.942 8.30536 357.799 9.10242C359.302 9.74794 360.908 11.2462 362.435 13.5744C363.937 15.8648 365.223 18.7481 366.179 21.8153C367.133 24.8779 367.731 28.0385 367.903 30.8496C368.08 33.7171 367.798 35.9806 367.207 37.397C366.944 38.0265 366.283 38.8819 365.044 39.9079C363.839 40.9061 362.262 41.924 360.431 42.9285C356.772 44.9363 352.354 46.7544 348.489 48.1754C344.908 49.4922 340.942 47.5249 339.646 43.7096L331.759 20.5003Z" stroke="white" stroke-width="5"/>
</svg>
