<svg width="376" height="335" viewBox="0 0 376 335" fill="none" xmlns="http://www.w3.org/2000/svg">
<path d="M200.129 85.618C326.596 72.7656 319.339 176.874 242.225 193.804C114.781 221.783 256.106 362.116 292.387 294.728" stroke="white" stroke-width="5"/>
<path d="M171.406 85.1491C176.828 84.0823 179.255 77.6988 175.922 73.2715L162.039 54.8281C161.135 53.6274 159.893 52.7251 158.474 52.2377L53.3561 16.1404C49.4385 14.7951 45.1823 16.8838 43.8496 20.8057L36.2105 43.2866C34.8778 47.2085 36.9733 51.4784 40.8909 52.8237L146.375 89.0467C147.622 89.4749 148.958 89.5665 150.25 89.3123L171.406 85.1491Z" stroke="white" stroke-width="5"/>
<path d="M43.7847 20.5003C45.1045 16.6162 43.0653 12.5704 39.344 11.5045C35.5467 10.4168 31.127 9.33407 27.0761 8.78644C22.8864 8.22005 19.6016 8.30536 17.7452 9.10242C16.2417 9.74794 14.6361 11.2462 13.1093 13.5744C11.6073 15.8648 10.3207 18.7481 9.365 21.8153C8.4108 24.8779 7.8132 28.0385 7.64055 30.8496C7.46443 33.7171 7.74568 35.9806 8.3372 37.397C8.6001 38.0265 9.26125 38.8819 10.4998 39.9079C11.7048 40.9061 13.2821 41.924 15.1127 42.9285C18.772 44.9363 23.1903 46.7544 27.0547 48.1754C30.6357 49.4922 34.6016 47.5249 35.898 43.7096L43.7847 20.5003Z" stroke="white" stroke-width="5"/>
</svg>
